<?xml version="1.0" encoding="UTF-8"?>
<!-- Created with Inkscape (http://www.inkscape.org/) -->
<svg width="146.36mm" height="73.968mm" version="1.1" viewBox="0 0 146.36 73.968" xmlns="http://www.w3.org/2000/svg" xmlns:cc="http://creativecommons.org/ns#" xmlns:dc="http://purl.org/dc/elements/1.1/" xmlns:rdf="http://www.w3.org/1999/02/22-rdf-syntax-ns#">
 <metadata>
  <rdf:RDF>
   <cc:Work rdf:about="">
    <dc:format>image/svg+xml</dc:format>
    <dc:type rdf:resource="http://purl.org/dc/dcmitype/StillImage"/>
    <dc:title/>
   </cc:Work>
  </rdf:RDF>
 </metadata>
 <g transform="translate(12.533 -90.981)">
  <path d="m103.08 164.88c-0.64758-0.0429-1.9616-0.12156-2.92-0.17473-3.4112-0.18926-5.9424-0.63823-9.3251-1.654-0.75119-0.22557-1.7897-0.52738-2.3077-0.6707-0.90559-0.25052-1.7346-0.56501-4.8038-1.8224-1.8416-0.75446-3.0911-1.3144-6.9232-3.1023-1.0102-0.47133-2.1123-0.96067-2.449-1.0874s-1.0785-0.41824-1.6484-0.64775c-0.56986-0.2295-1.5593-0.61911-2.1988-0.86579-0.69832-0.26938-1.2967-0.56621-1.4983-0.74323-1.1191-0.98261-0.7855-2.8099 0.59633-3.2659 0.57034-0.18823 1.3102-0.0618 2.7711 0.47365 0.75119 0.27532 1.6625 0.62507 2.0252 0.77723 0.36264 0.15217 1.1125 0.44047 1.6663 0.64067s1.3803 0.5512 1.8368 0.77999c0.45641 0.22879 1.1266 0.53207 1.4892 0.67395 0.36264 0.14189 1.1892 0.50289 1.8368 0.80223 5.5693 2.5744 8.1219 3.6181 10.96 4.4817 2.0812 0.63323 3.8968 1.0035 6.1902 1.2625 0.95441 0.10778 1.9896 0.2365 2.3004 0.28605 0.75485 0.12034 5.9375 0.11591 7.3-6e-3 2.1634-0.19396 4.9663-0.79784 6.2017-1.3361 2.5502-1.1112 3.8982-1.9806 7.3531-4.7425 0.76292-0.60988 3.4438-3.6432 4.2399-4.7971 0.55071-0.79833 0.90393-1.4929 1.8489-3.6356 1.2088-2.7411 1.452-3.4452 1.8796-5.4419 0.14737-0.68817 0.42138-1.6573 0.80237-2.8379 0.24158-0.74857 0.42257-1.5792 0.66698-3.0611 0.42573-2.5813 0.45235-2.9964 0.48025-7.4885l0.0272-4.38-0.26674-1.7426c-0.25663-1.6765-1.0309-4.9759-1.5362-6.5464-1.4173-4.4049-2.7222-6.5566-5.3074-8.7517-0.99779-0.84721-1.42-1.1352-2.5454-1.7362-2.0193-1.0783-3.8084-1.6626-8.9932-2.9369-1.652-0.40601-1.7525-0.43586-2.3077-0.68533l-0.32968-0.14812 0.62361-6e-3c0.65726-6e-3 2.4426 0.27163 3.2383 0.50422 0.91762 0.26821 2.7756 0.6439 6.1225 1.238 2.9602 0.52546 5.3489 1.474 7.1215 2.8281 0.95639 0.73057 1.3965 1.163 2.2448 2.2056 1.4824 1.822 1.6732 2.2055 2.2954 4.6155 0.68259 2.6439 1.6416 7.9451 1.8489 10.22 0.10005 1.0981 0.16685 6.2674 0.11869 9.1838-0.0489 2.9585-0.17022 4.2236-0.54211 5.6516-0.18215 0.69938-0.51738 1.9922-0.74496 2.8729-0.22759 0.8807-0.50375 1.8556-0.61371 2.1664-0.10997 0.31084-0.51101 1.646-0.89122 2.9671-0.8205 2.8509-1.0823 3.4773-2.5395 6.0754-1.414 2.5211-1.8814 3.2159-3.1341 4.6591-0.56049 0.64567-1.2763 1.4722-1.5907 1.8368-1.5176 1.7598-5.0551 4.1475-7.5527 5.0981-2.54 0.96668-4.2324 1.4398-6.5698 1.8366-1.3828 0.23475-4.4341 0.31744-6.5464 0.17739zm-91.414-0.18669c-5.025-0.0986-8.0276-0.24561-9.7019-0.475-0.36264-0.0497-1.6342-0.10502-2.8258-0.12297-2.3937-0.0361-2.6389-0.0856-3.2376-0.65357-1.1117-1.0547-0.75689-2.8016 0.6944-3.4192 0.30049-0.1279 0.71048-0.16371 2.0251-0.17692 1.5895-0.016 2.0933 7e-3 4.7567 0.21895 0.67348 0.0535 2.0722 0.14573 3.1084 0.20487 1.0361 0.0591 2.6892 0.1676 3.6735 0.24103 0.98431 0.0734 3.7183 0.17485 6.0754 0.22536 2.3572 0.0505 5.1335 0.13821 6.1696 0.19488 3.3223 0.18169 10.779 2e-3 12.339-0.29644 0.71596-0.13722 3.4494-0.54872 4.6155-0.69482 0.66627-0.0835 1.4503-0.26665 2.1965-0.51313 0.63821-0.21081 1.2228-0.38329 1.2991-0.38329 0.07632 0 0.69859-0.20794 1.3828-0.46209 5.123-1.9028 8.4521-3.5806 12.218-6.1572 1.2932-0.88493 4.5918-4.0452 5.7737-5.5316 0.39133-0.49216 1.0776-1.2942 1.5251-1.7824 1.1463-1.2504 1.9715-2.3724 2.4303-3.3041 0.37181-0.75509 0.39391-0.84618 0.38854-1.6013-0.0148-2.0826-1.4401-3.8236-4.7705-5.8272-1.0217-0.61464-1.6818-0.97223-4.5465-2.463-0.72529-0.37743-1.573-0.83477-1.8839-1.0163-0.31084-0.18154-0.64993-0.37719-0.75354-0.43476-0.10361-0.0576-0.60302-0.35839-1.1098-0.66848-0.50677-0.31008-1.0578-0.64643-1.2245-0.74743-1.9373-1.1738-2.2514-1.5482-1.0369-1.2363 0.80523 0.20682 0.64642 0.15008 3.6067 1.2886 1.3729 0.52799 2.7928 1.074 3.1555 1.2133 4.5658 1.7543 9.0258 4.4723 10.622 6.4731 0.95137 1.1928 1.3407 2.0796 1.4901 3.3942 0.10898 0.95901-0.0638 1.9468-0.49762 2.8443-0.23816 0.49277-0.52399 0.82857-1.5233 1.7897-2.1451 2.063-3.7918 3.767-5.4217 5.6102-1.1756 1.3294-1.8926 2.044-2.7879 2.7787-0.66295 0.54396-1.5358 1.2713-1.9397 1.6164-1.4682 1.2543-1.7514 1.4478-4.5568 3.1134-2.0047 1.1902-2.1905 1.2903-3.5958 1.9377-1.4464 0.66638-2.9658 1.1972-4.8966 1.7108-0.78532 0.2089-1.5429 0.42356-1.6835 0.47702-0.2281 0.0867-1.6183 0.40653-4.1415 0.95273-0.82054 0.17763-2.4374 0.42207-4.2858 0.64793-0.49216 0.0601-1.4035 0.18938-2.0251 0.28719-1.1799 0.18565-5.3179 0.52389-8.1477 0.666-2.4535 0.12322-8.7856 0.16288-12.952 0.0811zm13.941-11.01c-0.74252-0.34452-1.2716-1.1323-1.2716-1.8933 0-0.73883 0.43171-1.4306 1.3012-2.085 0.29458-0.22172 0.98547-0.83208 1.5353-1.3563 0.54984-0.52427 1.44-1.3312 1.9781-1.7933 2.3546-2.0218 3.5317-3.2646 4.8999-5.1737 0.9453-1.3189 1.2224-1.8372 1.6441-3.0745 0.83133-2.4394 0.83766-4.1057 0.02481-6.5332-0.81062-2.4209-2.7284-5.3188-6.0946-9.2098-1.9454-2.2487-2.3601-2.7453-2.3646-2.8324-0.0021-0.0438-0.09183-0.20276-0.19897-0.35322-0.24655-0.34624-0.10957-0.35471 0.52706-0.0326 0.81028 0.40996 2.0128 1.3855 5.173 4.1966 4.6513 4.1375 6.4566 7.1389 6.8414 11.374 0.15914 1.7515-0.03906 3.7-0.52055 5.1176-0.37545 1.1055-1.2277 3.0199-1.6689 3.7491-0.7047 1.1645-2.1938 3.0409-3.1035 3.9106-0.69835 0.66772-2.8095 2.5208-3.7481 3.2899-0.18618 0.15256-0.69879 0.62011-1.1391 1.039-0.90077 0.85685-1.8672 1.5702-2.3453 1.7312-0.46511 0.15664-1.0384 0.12889-1.4695-0.0711zm60.378-2.8031c-0.63698-0.33522-1.0144-0.83859-1.2247-1.6334-0.0623-0.23546-0.32948-0.71076-0.60106-1.0693-0.71562-0.94467-1.3428-2.2155-1.8989-3.8478-0.37895-1.1124-0.54047-1.9305-0.66131-3.35-0.0561-0.65966-0.138-1.6232-0.18186-2.1413-0.27152-3.2065 0.50844-6.8877 2.2248-10.501 1.2455-2.6218 2.7775-4.4984 5.0792-6.2221 0.80135-0.60009 2.313-1.4191 3.4497-1.8691 1.3596-0.53825 2.1134-0.67598 4.0225-0.73504 1.6452-0.0509 1.8304-0.0388 2.9843 0.19559 2.6347 0.53509 4.6218 1.4573 6.4948 3.0143 1.8213 1.514 3.2045 3.3772 3.9066 5.2623 0.47624 1.2787 0.61512 3.2186 0.32254 4.505-0.94893 4.1721-4.7988 6.962-9.6071 6.962-1.4679 0-1.977-0.12036-2.4065-0.56897-0.9151-0.95582-0.5498-2.5347 0.7078-3.0592 0.31977-0.13339 0.47146-0.13819 1.2039-0.0381 1.4244 0.19465 2.9631-0.0278 4.0632-0.58748 0.48264-0.24553 1.3743-1.166 1.681-1.7354 0.89099-1.6539 0.5151-4.2885-0.86636-6.0724-0.59609-0.76975-1.4754-1.6474-2.1619-2.1579-1.6515-1.228-3.9876-1.9768-6.2638-2.0079-1.7112-0.0233-4.4428 1.2294-6.1795 2.8339-1.5932 1.472-3.2402 4.2835-4.0039 6.8352-0.4052 1.3538-0.53296 2.2744-0.5441 3.9208-0.0159 2.3566 0.3885 4.802 1.1076 6.6974 0.51731 1.3635 0.59448 1.5094 1.2805 2.4197 0.63023 0.83639 0.87217 1.333 1.0376 2.1301 0.25368 1.222-0.19046 2.3034-1.1483 2.7961-0.4384 0.22551-1.4092 0.23807-1.817 0.0235zm-97.088-5.9611c-0.8714-0.27871-1.4365-1.0238-1.4318-1.8878 0.0036-0.62969 0.19242-1.0462 0.77934-1.7181 0.24154-0.27651 0.60429-0.78577 0.8061-1.1317 0.20182-0.34593 0.64347-0.95918 0.98144-1.3628 0.74475-0.88939 4.7589-6.9381 4.6329-6.9812-0.04917-0.0168-0.1847 0.0362-0.30118 0.11774-0.42585 0.29828-0.92507 0.0686-0.92196-0.42424 0.0025-0.36556 0.1213-0.46274 0.67743-0.55325 0.56666-0.0922 0.71543-0.0873 0.90299 0.0298 0.06938 0.0433 0.18221 0.026 0.26197-0.0402 0.12346-0.10246 1.1703-1.7272 1.1703-1.8164 0-0.019 0.2183-0.41156 0.48512-0.8723 1.2413-2.1435 2.2547-4.8428 2.6661-7.1015 0.36715-2.0159 0.366-4.6495-0.0032-7.1116-0.56416-3.7633-0.81878-6.5555-0.60957-6.6848 0.06128-0.0379 0.13567-0.0446 0.16532-0.015 0.11316 0.11316 1.0217 3.4154 2.1067 7.6572 0.66445 2.5977 0.74243 2.9409 0.99158 4.3645 0.20467 1.1694 0.27691 3.7364 0.1368 4.8607-0.38073 3.055-1.7293 6.4114-3.7049 9.2211-0.36426 0.51805-1.3088 1.9168-2.0991 3.1084-1.9847 2.9926-2.5149 3.7516-3.1952 4.574-0.32398 0.39162-0.82079 1.0698-1.104 1.5071-0.60377 0.9321-1.4854 1.868-1.9741 2.0956-0.42691 0.19883-1.0768 0.27422-1.4193 0.16466zm86.821-23.356c-0.78036-0.39758-1.3568-0.92062-1.9581-1.7768-0.28141-0.40064-0.93901-1.122-1.4614-1.6031-1.0655-0.98139-1.5151-1.5228-2.6761-3.2227-2.0455-2.9952-2.7515-4.3111-3.1272-5.8292-0.3912-1.5809-0.47036-2.1894-0.4731-3.6372-3e-3 -1.5072 0.12554-2.3362 0.57511-3.7135 0.76841-2.3539 2.8056-4.9637 5.9004-7.5588 2.392-2.0058 4.4148-3.3974 4.6906-3.227 0.12961 0.0801-0.53626 0.93873-1.9959 2.5736-4.0091 4.4905-5.793 8.1336-5.6089 11.455 0.1179 2.1271 0.6467 3.272 3.6095 7.815 0.55132 0.84538 1.0796 1.4846 2.1124 2.5557 0.75746 0.7856 1.5062 1.6135 1.6638 1.8398 0.15765 0.22627 0.5148 0.62398 0.79368 0.8838 0.27887 0.25983 0.60545 0.67569 0.72572 0.92414 0.59293 1.2248-0.28412 2.6791-1.6725 2.7733-0.45097 0.0306-0.62016-8e-3 -1.0982-0.25177z" stroke-width=".094193"/>
 </g>
</svg>
