<?xml version="1.0" encoding="UTF-8" standalone="no"?>
<!-- Created with Inkscape (http://www.inkscape.org/) -->

<svg
   xmlns:dc="http://purl.org/dc/elements/1.1/"
   xmlns:cc="http://creativecommons.org/ns#"
   xmlns:rdf="http://www.w3.org/1999/02/22-rdf-syntax-ns#"
   xmlns:svg="http://www.w3.org/2000/svg"
   xmlns="http://www.w3.org/2000/svg"
   xmlns:sodipodi="http://sodipodi.sourceforge.net/DTD/sodipodi-0.dtd"
   xmlns:inkscape="http://www.inkscape.org/namespaces/inkscape"
   width="155.36034mm"
   height="45.852787mm"
   viewBox="0 0 155.36034 45.852787"
   version="1.1"
   id="svg8"
   sodipodi:docname="flourish.svg"
   inkscape:version="0.92.4 (5da689c313, 2019-01-14)">
  <defs
     id="defs2">
    <inkscape:path-effect
       effect="powerstroke"
       id="path-effect848"
       is_visible="true"
       offset_points="2.4436914,-0.36127469"
       sort_points="true"
       interpolator_type="CubicBezierJohan"
       interpolator_beta="0.2"
       start_linecap_type="zerowidth"
       linejoin_type="extrp_arc"
       miter_limit="4"
       end_linecap_type="zerowidth" />
    <inkscape:path-effect
       effect="spiro"
       id="path-effect846"
       is_visible="true" />
    <inkscape:path-effect
       effect="powerstroke"
       id="path-effect842"
       is_visible="true"
       offset_points="0.89991782,0.5064232"
       sort_points="true"
       interpolator_type="CubicBezierJohan"
       interpolator_beta="0.2"
       start_linecap_type="zerowidth"
       linejoin_type="extrp_arc"
       miter_limit="4"
       end_linecap_type="zerowidth" />
    <inkscape:path-effect
       effect="spiro"
       id="path-effect840"
       is_visible="true" />
    <inkscape:path-effect
       effect="powerstroke"
       id="path-effect836"
       is_visible="true"
       offset_points="0.7612851,0.57904217"
       sort_points="true"
       interpolator_type="CubicBezierJohan"
       interpolator_beta="0.2"
       start_linecap_type="zerowidth"
       linejoin_type="extrp_arc"
       miter_limit="4"
       end_linecap_type="zerowidth" />
    <inkscape:path-effect
       effect="spiro"
       id="path-effect834"
       is_visible="true" />
    <inkscape:path-effect
       effect="powerstroke"
       id="path-effect843"
       is_visible="true"
       offset_points="0.7225321,-0.45169767"
       sort_points="true"
       interpolator_type="CubicBezierJohan"
       interpolator_beta="0.2"
       start_linecap_type="zerowidth"
       linejoin_type="extrp_arc"
       miter_limit="4"
       end_linecap_type="zerowidth" />
    <inkscape:path-effect
       effect="spiro"
       id="path-effect841"
       is_visible="true" />
    <inkscape:path-effect
       effect="powerstroke"
       id="path-effect831"
       is_visible="true"
       offset_points="3.6442418,-0.80229807"
       sort_points="true"
       interpolator_type="CubicBezierJohan"
       interpolator_beta="0.2"
       start_linecap_type="zerowidth"
       linejoin_type="extrp_arc"
       miter_limit="4"
       end_linecap_type="zerowidth" />
    <inkscape:path-effect
       effect="spiro"
       id="path-effect829"
       is_visible="true" />
    <inkscape:path-effect
       effect="powerstroke"
       id="path-effect825"
       is_visible="true"
       offset_points="2.0003555,0.65031485"
       sort_points="true"
       interpolator_type="CubicBezierJohan"
       interpolator_beta="0.2"
       start_linecap_type="zerowidth"
       linejoin_type="extrp_arc"
       miter_limit="4"
       end_linecap_type="zerowidth" />
    <inkscape:path-effect
       effect="spiro"
       id="path-effect823"
       is_visible="true" />
    <inkscape:path-effect
       effect="powerstroke"
       id="path-effect819"
       is_visible="true"
       offset_points="1.1416532,-0.81668824"
       sort_points="true"
       interpolator_type="CubicBezierJohan"
       interpolator_beta="0.2"
       start_linecap_type="zerowidth"
       linejoin_type="extrp_arc"
       miter_limit="4"
       end_linecap_type="zerowidth" />
    <inkscape:path-effect
       effect="spiro"
       id="path-effect817"
       is_visible="true" />
  </defs>
  <sodipodi:namedview
     id="base"
     pagecolor="#ffffff"
     bordercolor="#666666"
     borderopacity="1.0"
     inkscape:pageopacity="0.0"
     inkscape:pageshadow="2"
     inkscape:zoom="1.4"
     inkscape:cx="177.45157"
     inkscape:cy="105.20336"
     inkscape:document-units="mm"
     inkscape:current-layer="layer1"
     showgrid="false"
     inkscape:window-width="1920"
     inkscape:window-height="1001"
     inkscape:window-x="-9"
     inkscape:window-y="-9"
     inkscape:window-maximized="1"
     fit-margin-top="0"
     fit-margin-left="0"
     fit-margin-right="0"
     fit-margin-bottom="0" />
  <metadata
     id="metadata5">
    <rdf:RDF>
      <cc:Work
         rdf:about="">
        <dc:format>image/svg+xml</dc:format>
        <dc:type
           rdf:resource="http://purl.org/dc/dcmitype/StillImage" />
        <dc:title></dc:title>
      </cc:Work>
    </rdf:RDF>
  </metadata>
  <g
     inkscape:label="Layer 1"
     inkscape:groupmode="layer"
     id="layer1"
     transform="translate(-55.957421,45.175037)">
    <path
       style="fill:#000000;fill-rule:nonzero;stroke:none;stroke-width:0.26458332px;stroke-linecap:butt;stroke-linejoin:miter;stroke-opacity:1"
       d="m 86.528508,-15.571713 c -2.010376,1.946351 -6.995249,7.573236 -9.96155,10.7024141 -0.243477,0.2852052 -0.458924,0.5209137 -0.637249,0.6901798 -1.076784,1.0220809 -2.7067,2.5130826 -4.642778,3.51690722 -1.855184,0.96191774 -4.276593,1.61518959 -6.807479,1.22535515 -2.21072,-0.34050244 -4.426935,-1.49296021 -6.022416,-3.37559167 -1.467668,-1.7318812 -2.346391,-3.9982787 -2.486343,-6.3685354 -0.05658,-1.1767522 0.06383,-2.3977282 0.436637,-3.5674122 0.364878,-1.1449 0.972469,-2.228964 1.820216,-3.104481 0.949906,-0.986237 2.183733,-1.678356 3.499564,-1.95524 1.342847,-0.282582 2.742689,-0.124443 3.939188,0.422554 1.251796,0.572264 2.250287,1.55603 2.826815,2.700781 0.623794,1.238586 0.739829,2.628362 0.435995,3.829723 -0.34034,1.3437431 -1.17965,2.4116207 -2.127297,3.0675138 -1.218003,0.8430144 -2.571718,1.0206296 -3.585614,0.9155231 1.018082,0.1055405 2.365632,-0.097502 3.550452,-0.9649221 0.921275,-0.6744766 1.704212,-1.7491501 1.986034,-3.0594738 0.252291,-1.170955 0.08468,-2.493048 -0.549544,-3.635142 -0.586348,-1.055901 -1.558769,-1.929483 -2.730849,-2.405399 -1.120715,-0.455073 -2.401904,-0.538488 -3.596356,-0.231065 -1.170852,0.301333 -2.241783,0.971143 -3.039428,1.877477 -0.707485,0.80868 -1.196917,1.794086 -1.469196,2.823482 -0.278309,1.052074 -0.333523,2.147115 -0.231574,3.2033812 0.179727,2.1314683 1.018566,4.1126119 2.324454,5.5821775 1.417784,1.5954062 3.349469,2.5380936 5.229625,2.7885167 2.153792,0.2868922 4.237235,-0.3032889 5.857659,-1.1726937 1.701711,-0.912974 3.185025,-2.2798792 4.257746,-3.2981058 0.17115,-0.1624553 0.41618,-0.3680375 0.704182,-0.5978534 3.223511,-2.8635072 9.00873,-7.6637195 11.019106,-9.6100705 z"
       id="path815"
       inkscape:connector-curvature="0"
       inkscape:path-effect="#path-effect817;#path-effect819"
       inkscape:original-d="M 86.528508,-15.571713 76.03818,-5.4154707 c -3.168453,3.0675473 -12.580239,-4.4753008 -19.484965,-3.8068625 -6.904728,0.6684386 0.909998,-2.2960558 1.978811,-6.3493788 1.068814,-4.053324 7.502805,2.201192 10.30887,4.695972 2.806065,2.4947798 -3.040829,3.1570999 -5.624699,4.0037179"
       sodipodi:nodetypes="cssssc" />
    <path
       style="fill:#000000;fill-rule:nonzero;stroke:none;stroke-width:0.26458332px;stroke-linecap:butt;stroke-linejoin:miter;stroke-opacity:1"
       d="m 85.486157,-14.67636 c 1.785131,-1.760593 5.3003,-4.109091 10.097403,-4.447533 3.669963,-0.213995 6.27869,0.853527 7.90005,1.734032 0,1e-6 0.002,0.0014 0.002,0.0014 1.86071,1.010846 4.12317,3.002962 4.95895,5.990304 0.35702,1.252851 0.4685,2.7288345 0.14173,4.2429024 -0.28761,1.3326025 -0.91719,2.6786562 -1.9057,3.8179008 -0.91898,1.0591113 -2.14021,1.9239269 -3.54373,2.4252848 -1.3503,0.482345 -2.85299,0.61933081 -4.310281,0.35333529 -1.455156,-0.26586565 -2.849255,-0.93925859 -3.895237,-1.98482809 -1.059694,-1.0592207 -1.731289,-2.493976 -1.792054,-3.9598717 -0.06335,-1.5273851 0.557717,-3.0387427 1.644587,-4.0080185 0.578052,-0.53138 1.266597,-0.892028 1.968339,-1.068173 0.797962,-0.200299 1.588203,-0.15786 2.262339,0.04302 0.769563,0.227284 1.354777,0.645252 1.745557,1.043057 -0.38905,-0.396052 -0.962627,-0.832157 -1.728945,-1.095099 -0.6734,-0.229263 -1.478268,-0.312797 -2.314112,-0.1486 -0.735289,0.144441 -1.477537,0.479038 -2.123143,1.006192 -1.18483,0.9958488 -1.902217,2.5864562 -1.885079,4.2385112 0.0164,1.5848419 0.691006,3.1596503 1.808221,4.3498947 1.10241,1.17452333 2.593249,1.95425144 4.167549,2.29403707 1.575079,0.34025549 3.223749,0.24628947 4.731369,-0.23935135 1.56671,-0.50467292 2.95306,-1.42011902 4.01722,-2.57535472 1.14441,-1.2423482 1.89734,-2.734259 2.26315,-4.2360144 0.41552,-1.7058372 0.33049,-3.3862575 -0.05,-4.8277665 -0.91955,-3.425652 -3.46818,-5.678751 -5.5399,-6.804228 0,0 -0.003,-0.0015 -0.003,-0.0015 -1.81462,-0.984929 -4.836458,-1.819149 -8.590017,-1.237451 -4.944596,0.707146 -8.258842,3.349154 -10.027996,5.093989 z"
       id="path821"
       inkscape:connector-curvature="0"
       inkscape:path-effect="#path-effect823;#path-effect825"
       inkscape:original-d="m 85.486157,-14.67636 c 3.354496,-1.590518 6.70873,-3.180771 10.062699,-4.770761 3.353967,-1.589989 8.998334,5.256036 13.497114,7.884451 4.49877,2.6284154 -6.85966,7.5723724 -10.28988,11.35895513 -3.430225,3.78658277 0.178443,-7.57290113 0.267269,-11.35895513 0.08883,-3.786053 1.158431,0.712455 1.737251,1.069078" />
    <path
       style="fill:#000000;fill-rule:nonzero;stroke:none;stroke-width:0.26458332px;stroke-linecap:butt;stroke-linejoin:miter;stroke-opacity:1"
       d="m 107.17508,-15.838982 c 0.64179,-1.670923 2.09176,-4.30638 5.10399,-6.043686 2.25807,-1.302343 5.1197,-1.881456 7.95674,-1.344532 3.16357,0.606684 5.81835,2.472048 7.7652,4.278797 1.62028,1.503541 3.04234,3.234892 3.81015,4.201379 0.58881,0.741158 1.22051,1.556773 1.90949,2.416844 2.2806,2.8405915 5.40796,6.4100267 9.38568,8.8096795 2.78659,1.6848548 6.3629,2.95622725 9.97433,2.4461753 1.63655,-0.2189918 3.3178,-0.816916 4.74229,-1.8784051 1.34077,-0.9990482 2.44406,-2.420839 2.97934,-4.0829161 0.4738,-1.4625219 0.48887,-3.1117126 -0.0975,-4.5574886 -0.58209,-1.43561 -1.77944,-2.637965 -3.24918,-3.11755 -1.25617,-0.414957 -2.6879,-0.273322 -3.77132,0.431553 -0.57384,0.355872 -1.04337,0.854196 -1.35285,1.425536 -0.33361,0.615849 -0.47359,1.30265 -0.42793,1.949106 0.0725,0.9306021 0.52348,1.7453753 1.11003,2.2881427 0.75829,0.7016939 1.68929,0.9377364 2.40365,0.9290858 -0.7098,0.0086 -1.65002,-0.2011148 -2.44615,-0.8812756 -0.6164,-0.5266054 -1.12756,-1.3417037 -1.25645,-2.3159639 -0.0942,-0.676308 -0.002,-1.421248 0.30935,-2.120009 0.28911,-0.648267 0.761,-1.241965 1.37353,-1.695155 1.19194,-0.846903 2.80151,-1.077825 4.25762,-0.663996 1.69973,0.488716 3.11259,1.808104 3.8396,3.432543 0.73184,1.634981 0.77823,3.5130736 0.2973,5.1958581 -0.54883,1.9098511 -1.74882,3.5578921 -3.23422,4.7362748 -1.57746,1.25145893 -3.45053,1.97666692 -5.27681,2.27237764 -4.03507,0.62659012 -7.96417,-0.74925675 -10.94347,-2.50571204 -4.24815,-2.5096808 -7.54117,-6.2362012 -9.85774,-9.0973785 -0.63197,-0.778843 -1.41634,-1.778934 -1.925,-2.419211 -0.73309,-0.922778 -2.11892,-2.725678 -3.5408,-4.187616 -1.74815,-1.79758 -4.10812,-3.671649 -6.9745,-4.412255 -2.577,-0.673367 -5.32258,-0.338665 -7.58971,0.784549 -3.03556,1.50392 -4.62456,4.032577 -5.2747,5.725249 z"
       id="path827"
       inkscape:connector-curvature="0"
       inkscape:path-effect="#path-effect829;#path-effect831"
       inkscape:original-d="m 107.17508,-15.838982 c 4.32112,-2.3166 8.64198,-4.632936 12.96257,-6.949008 4.32059,-2.316071 8.64198,7.305103 12.96257,10.958051 4.3206,3.6529478 6.41474,5.9687547 9.62171,8.953529 3.20697,2.98477416 12.38375,-2.67296 18.57523,-4.0090431 6.19148,-1.3360828 -2.49425,-5.4347449 -3.74177,-8.1517199 -1.24753,-2.716976 -3.8306,2.76152 -5.7463,4.142677 -1.9157,1.3811574 2.40569,2.1378919 3.60814,3.2072345" />
    <path
       style="fill:#000000;fill-rule:nonzero;stroke:none;stroke-width:0.26458332px;stroke-linecap:butt;stroke-linejoin:miter;stroke-opacity:1"
       d="m 124.81487,-20.783468 c 1.48481,0.706818 3.93999,1.569121 7.01299,1.958372 3.10909,0.393824 5.58693,0.162965 7.22402,-0.01236 1.69455,-0.181481 3.52248,-0.543556 5.39836,-1.169495 3.40905,-1.135967 7.5633,-3.367391 10.35627,-7.299731 1.30594,-1.829877 2.3765,-4.144026 2.62556,-6.708045 0.22404,-2.306199 -0.25298,-4.841156 -1.66307,-6.908163 -1.32891,-1.948049 -3.52207,-3.425193 -5.96633,-3.68136 -1.19183,-0.133973 -2.42895,0.02008 -3.5562,0.478754 -1.13189,0.460554 -2.13381,1.223403 -2.85757,2.19023 -0.6478,0.861154 -1.06231,1.867397 -1.21562,2.890112 -0.16434,1.096294 -0.0262,2.186929 0.33897,3.137896 0.65024,1.668177 1.98444,2.867305 3.38029,3.441394 1.82782,0.751751 3.64472,0.464395 4.84747,-0.07746 -1.19968,0.540473 -3.01578,0.847049 -4.86332,0.116766 -1.4114,-0.557885 -2.7854,-1.745841 -3.47961,-3.43457 -0.39972,-0.958873 -0.57764,-2.073762 -0.44358,-3.213356 0.12507,-1.0631 0.52049,-2.126054 1.17052,-3.053034 0.73094,-1.037452 1.76336,-1.874982 2.95186,-2.399715 1.18348,-0.522525 2.49738,-0.726986 3.77961,-0.620475 2.62837,0.2369 4.99643,1.784445 6.45023,3.852966 1.54201,2.193989 2.08379,4.890993 1.87666,7.347927 -0.23016,2.730504 -1.33709,5.188853 -2.68897,7.124906 -2.90919,4.147234 -7.23837,6.485539 -10.75803,7.667358 -1.9426,0.651421 -3.83462,1.027646 -5.5873,1.215351 -1.65197,0.17692 -4.31824,0.192681 -7.39432,-0.440316 -3.13153,-0.644406 -5.41632,-1.679155 -6.93889,-2.403948 z"
       id="path839"
       inkscape:connector-curvature="0"
       inkscape:path-effect="#path-effect841;#path-effect843"
       inkscape:original-d="m 124.81487,-20.783468 c 4.23203,0.846089 42.91471,-41.246728 19.77794,1.202713 -2.06115,3.781622 2.13843,-0.31208 10.55715,-7.483547 8.41873,-7.171468 -15.95873,-18.204612 -11.8935,-14.967094 23.15689,18.441974 -1.33607,3.206971 -0.8018,6.147198 0.53428,2.94023 6.19201,4.18696 8.28535,3.34087"
       sodipodi:nodetypes="cssscc" />
    <path
       style="fill:#000000;fill-rule:nonzero;stroke:none;stroke-width:0.26458332px;stroke-linecap:butt;stroke-linejoin:miter;stroke-opacity:1"
       d="m 146.59733,-20.382562 c 2.47599,-1.039893 10.24377,-3.187868 12.80792,-3.941273 1.27336,-0.37414 2.62127,-0.747563 4.03977,-1.111609 2.93197,-0.752257 6.35825,-1.501778 9.84219,-1.78235 3.10253,-0.249854 6.42973,-0.146904 9.73118,0.743837 2.91504,0.781697 6.00136,2.256941 8.45807,4.687241 2.19438,2.170762 3.89189,5.18251 4.22228,8.53165 0.26306,2.644564 -0.35555,5.493473 -1.93695,7.8344735 -1.5056,2.2288099 -3.89065,3.9570815 -6.62194,4.57422915 -1.36963,0.31756794 -2.82506,0.35967083 -4.22964,0.0661126 -1.38718,-0.28991571 -2.71598,-0.90934571 -3.81072,-1.82524481 -1.09678,-0.9176022 -1.94681,-2.128508 -2.40308,-3.4750982 -0.46392,-1.3691382 -0.51139,-2.8644013 -0.12318,-4.2272372 0.31266,-1.110552 0.90823,-2.118278 1.70125,-2.898676 0.83647,-0.823159 1.88035,-1.380731 2.96038,-1.619212 1.17273,-0.258955 2.36445,-0.137961 3.3776,0.271476 1.15383,0.46629 2.04709,1.288611 2.59622,2.197853 0.93848,1.561062 0.87298,3.3160227 0.41452,4.5354959 0.45747,-1.2168518 0.5377,-2.9728769 -0.38728,-4.5516679 -0.53783,-0.922239 -1.42309,-1.771939 -2.58607,-2.271379 -1.02125,-0.438572 -2.23684,-0.593291 -3.45131,-0.35676 -1.11841,0.217818 -2.21517,0.764956 -3.1104,1.599538 -0.84866,0.791167 -1.50302,1.82812 -1.86559,2.989086 -0.44119,1.4273486 -0.42874,3.0089874 0.0312,4.4756914 0.45228,1.4423424 1.32659,2.7530795 2.47683,3.7613321 1.14796,1.0062611 2.55399,1.70226055 4.03515,2.04741246 1.49957,0.34945086 3.06109,0.33992619 4.53903,0.03204023 2.94153,-0.62886384 5.52302,-2.45301739 7.17184,-4.83607339 1.73136,-2.5023346 2.43026,-5.5586848 2.17633,-8.4130938 -0.32423,-3.61387 -2.12095,-6.849647 -4.44027,-9.18016 -2.59594,-2.608479 -5.85135,-4.185164 -8.90274,-5.022997 -3.45892,-0.94432 -6.92293,-1.055327 -10.11286,-0.805519 -3.58043,0.280389 -7.08022,1.04237 -10.03871,1.798444 -1.43266,0.36603 -2.79385,0.74228 -4.07956,1.12005 -2.589,0.760708 -10.00546,4.012495 -12.48145,5.052388 z"
       id="path832"
       inkscape:connector-curvature="0"
       inkscape:path-effect="#path-effect834;#path-effect836"
       inkscape:original-d="m 146.59733,-20.382562 c 10.55741,-0.178444 6.14747,-5.434744 16.70435,-5.61266 10.55688,-0.177915 26.90539,10.155978 32.87415,12.695303 5.96876,2.539325 -5.96876,8.5523601 -8.95353,12.82893691 -2.98477,4.27657699 -7.21601,-6.59291291 -10.82441,-9.88897191 -3.60841,-3.29606 7.21654,-1.336613 10.82441,-2.004522 3.60787,-0.667909 0.26754,3.0287903 0.4009,4.5435819"
       sodipodi:nodetypes="cssscsc" />
    <path
       style="fill:#000000;fill-rule:nonzero;stroke:none;stroke-width:0.26458332px;stroke-linecap:butt;stroke-linejoin:miter;stroke-opacity:1"
       d="m 93.866954,-19.289165 c -1.817678,0.623013 -4.788675,1.227198 -8.39244,0.919541 -3.630662,-0.309954 -6.337004,-1.38956 -8.066152,-2.161547 -0.548507,-0.244883 -1.103295,-0.519936 -1.658961,-0.828356 -2.454664,-1.361617 -5.515208,-3.720985 -7.117356,-7.288587 -0.648997,-1.431721 -1.096066,-3.149115 -1.049783,-4.980889 0.04108,-1.626104 0.482649,-3.347936 1.433019,-4.849843 0.616771,-0.984313 1.454261,-1.877758 2.479442,-2.544842 0.989118,-0.643627 2.146934,-1.068204 3.353223,-1.17561 1.193749,-0.106299 2.421496,0.103113 3.503161,0.629687 1.096322,0.533699 2.023775,1.388045 2.620384,2.424953 0.590558,1.024486 0.846081,2.204874 0.768223,3.332438 -0.08385,1.214295 -0.548112,2.341876 -1.233347,3.221943 -0.779901,1.00165 -1.819776,1.662869 -2.845374,1.997 -1.320078,0.43007 -2.573848,0.324516 -3.4937,0.05447 0.917615,0.269385 2.171203,0.392109 3.506296,-0.0145 1.03778,-0.31606 2.107687,-0.958738 2.929662,-1.959467 0.722203,-0.879259 1.23488,-2.023817 1.358931,-3.280734 0.115174,-1.166971 -0.111023,-2.41023 -0.701072,-3.511966 -0.597942,-1.11445 -1.55356,-2.053103 -2.709509,-2.660027 -1.140294,-0.598712 -2.4511,-0.865537 -3.744313,-0.790025 -1.306576,0.07628 -2.573589,0.496787 -3.669465,1.164253 -1.13564,0.691677 -2.074452,1.635841 -2.77657,2.689067 -1.067857,1.61602 -1.582107,3.477819 -1.657896,5.242903 -0.08536,1.987673 0.369837,3.851547 1.048013,5.402981 1.697683,3.849626 4.950878,6.360129 7.506509,7.781641 0.582229,0.323663 1.163322,0.611986 1.737576,0.868363 1.787714,0.798133 4.764692,1.701687 8.454905,1.742526 3.729394,0.04127 6.575056,-0.794188 8.416594,-1.425379 z"
       id="path838"
       inkscape:connector-curvature="0"
       inkscape:path-effect="#path-effect840;#path-effect842"
       inkscape:original-d="m 93.866954,-19.289165 c -6.057844,-0.401168 -12.304941,-1.227296 -18.363314,-1.627936 -6.058374,-0.400639 -4.543317,-11.849213 -6.815373,-17.773422 -2.272054,-5.924211 8.28562,-0.356624 12.428034,-0.53454 4.142412,-0.177914 -4.632409,5.790575 -6.949008,8.68626"
       sodipodi:nodetypes="csssc" />
    <path
       style="fill:#000000;fill-rule:nonzero;stroke:none;stroke-width:0.26458332px;stroke-linecap:butt;stroke-linejoin:miter;stroke-opacity:1"
       d="m 188.95955,-24.926143 c 1.18281,1.115057 3.34942,2.668432 6.40045,3.365042 2.54574,0.581243 5.03259,0.4069 7.14993,-0.196674 1.16595,-0.334707 2.07002,-0.75553 2.70634,-1.087734 0.89492,-0.467203 1.94834,-1.154264 2.90599,-2.150849 1.30068,-1.353546 2.48709,-3.407574 2.57983,-5.819122 0.0506,-1.130198 -0.14221,-2.35483 -0.67247,-3.499101 -0.49486,-1.067907 -1.27847,-2.040877 -2.29259,-2.735539 -1.003,-0.68706 -2.20573,-1.078223 -3.41303,-1.086854 -1.26086,-0.009 -2.4779,0.401853 -3.42364,1.111231 -1.21308,0.91338 -1.91235,2.259372 -2.10444,3.53373 -0.25749,1.708217 0.35281,3.157505 0.98805,4.022288 -0.63274,-0.861382 -1.26737,-2.303781 -1.04279,-4.029971 0.16767,-1.288747 0.84201,-2.677862 2.06456,-3.648376 0.95087,-0.757609 2.1969,-1.22542 3.51584,-1.257619 1.26281,-0.03083 2.54183,0.337239 3.62929,1.03208 1.09934,0.702418 1.96811,1.710722 2.53394,2.839209 0.60616,1.208926 0.85307,2.517603 0.83168,3.73774 -0.0609,2.602597 -1.30834,4.821937 -2.68627,6.283611 -1.0144,1.076066 -2.13245,1.813608 -3.07956,2.308061 -0.67336,0.35154 -1.64662,0.764251 -2.87999,1.059485 -2.24016,0.540397 -4.81702,0.576226 -7.37973,-0.144663 -3.07094,-0.863848 -5.15146,-2.523635 -6.33139,-3.635975 z"
       id="path844"
       inkscape:connector-curvature="0"
       inkscape:path-effect="#path-effect846;#path-effect848"
       inkscape:original-d="m 188.95955,-24.926143 c 4.54385,1.157903 9.08743,2.316071 13.63075,3.474503 4.54332,1.158433 5.61292,-6.236553 8.41899,-9.354432 2.80606,-3.117882 -6.77056,-4.187489 -10.15624,-6.280835 -3.38568,-2.093347 -0.71246,5.077857 -1.06908,7.617182" />
  </g>
</svg>
