<?xml version="1.0" encoding="UTF-8" standalone="no"?>
<!-- Created with Inkscape (http://www.inkscape.org/) -->

<svg
   xmlns:dc="http://purl.org/dc/elements/1.1/"
   xmlns:cc="http://creativecommons.org/ns#"
   xmlns:rdf="http://www.w3.org/1999/02/22-rdf-syntax-ns#"
   xmlns:svg="http://www.w3.org/2000/svg"
   xmlns="http://www.w3.org/2000/svg"
   xmlns:sodipodi="http://sodipodi.sourceforge.net/DTD/sodipodi-0.dtd"
   xmlns:inkscape="http://www.inkscape.org/namespaces/inkscape"
   width="159.92303mm"
   height="47.737339mm"
   viewBox="0 0 159.92304 47.737339"
   version="1.1"
   id="svg8"
   sodipodi:docname="flourish.svg"
   inkscape:version="0.92.4 (5da689c313, 2019-01-14)">
  <defs
     id="defs2">
    <inkscape:path-effect
       effect="powerstroke"
       id="path-effect854"
       is_visible="true"
       offset_points="3.5338712,0.90677845"
       sort_points="true"
       interpolator_type="CubicBezierJohan"
       interpolator_beta="0.2"
       start_linecap_type="zerowidth"
       linejoin_type="extrp_arc"
       miter_limit="4"
       end_linecap_type="zerowidth" />
    <inkscape:path-effect
       effect="spiro"
       id="path-effect852"
       is_visible="true" />
    <inkscape:path-effect
       effect="powerstroke"
       id="path-effect848"
       is_visible="true"
       offset_points="4.6500622,2.1227551"
       sort_points="true"
       interpolator_type="CubicBezierJohan"
       interpolator_beta="0.2"
       start_linecap_type="zerowidth"
       linejoin_type="extrp_arc"
       miter_limit="4"
       end_linecap_type="zerowidth" />
    <inkscape:path-effect
       effect="spiro"
       id="path-effect846"
       is_visible="true" />
    <inkscape:path-effect
       effect="powerstroke"
       id="path-effect842"
       is_visible="true"
       offset_points="2.1280718,-1.9923916"
       sort_points="true"
       interpolator_type="CubicBezierJohan"
       interpolator_beta="0.2"
       start_linecap_type="zerowidth"
       linejoin_type="extrp_arc"
       miter_limit="4"
       end_linecap_type="zerowidth" />
    <inkscape:path-effect
       effect="spiro"
       id="path-effect840"
       is_visible="true" />
    <inkscape:path-effect
       effect="powerstroke"
       id="path-effect836"
       is_visible="true"
       offset_points="2.3792306,1.91581"
       sort_points="true"
       interpolator_type="CubicBezierJohan"
       interpolator_beta="0.2"
       start_linecap_type="zerowidth"
       linejoin_type="extrp_arc"
       miter_limit="4"
       end_linecap_type="zerowidth" />
    <inkscape:path-effect
       effect="spiro"
       id="path-effect834"
       is_visible="true" />
    <inkscape:path-effect
       effect="powerstroke"
       id="path-effect843"
       is_visible="true"
       offset_points="0.7763655,-1.2693056"
       sort_points="true"
       interpolator_type="CubicBezierJohan"
       interpolator_beta="0.2"
       start_linecap_type="zerowidth"
       linejoin_type="extrp_arc"
       miter_limit="4"
       end_linecap_type="zerowidth" />
    <inkscape:path-effect
       effect="spiro"
       id="path-effect841"
       is_visible="true" />
    <inkscape:path-effect
       effect="powerstroke"
       id="path-effect831"
       is_visible="true"
       offset_points="3.7616647,-2.4019915"
       sort_points="true"
       interpolator_type="CubicBezierJohan"
       interpolator_beta="0.2"
       start_linecap_type="zerowidth"
       linejoin_type="extrp_arc"
       miter_limit="4"
       end_linecap_type="zerowidth" />
    <inkscape:path-effect
       effect="spiro"
       id="path-effect829"
       is_visible="true" />
    <inkscape:path-effect
       effect="powerstroke"
       id="path-effect825"
       is_visible="true"
       offset_points="2.7645119,-2.264992"
       sort_points="true"
       interpolator_type="CubicBezierJohan"
       interpolator_beta="0.2"
       start_linecap_type="zerowidth"
       linejoin_type="extrp_arc"
       miter_limit="4"
       end_linecap_type="zerowidth" />
    <inkscape:path-effect
       effect="spiro"
       id="path-effect823"
       is_visible="true" />
    <inkscape:path-effect
       effect="powerstroke"
       id="path-effect819"
       is_visible="true"
       offset_points="4.0179343,-1.6815155"
       sort_points="true"
       interpolator_type="CubicBezierJohan"
       interpolator_beta="0.2"
       start_linecap_type="zerowidth"
       linejoin_type="extrp_arc"
       miter_limit="4"
       end_linecap_type="zerowidth" />
    <inkscape:path-effect
       effect="spiro"
       id="path-effect817"
       is_visible="true" />
  </defs>
  <sodipodi:namedview
     id="base"
     pagecolor="#ffffff"
     bordercolor="#666666"
     borderopacity="1.0"
     inkscape:pageopacity="0.0"
     inkscape:pageshadow="2"
     inkscape:zoom="1.4"
     inkscape:cx="376.4981"
     inkscape:cy="-40.125748"
     inkscape:document-units="mm"
     inkscape:current-layer="layer1"
     showgrid="false"
     inkscape:window-width="1920"
     inkscape:window-height="1001"
     inkscape:window-x="-9"
     inkscape:window-y="-9"
     inkscape:window-maximized="1"
     fit-margin-top="0"
     fit-margin-left="0"
     fit-margin-right="0"
     fit-margin-bottom="0" />
  <metadata
     id="metadata5">
    <rdf:RDF>
      <cc:Work
         rdf:about="">
        <dc:format>image/svg+xml</dc:format>
        <dc:type
           rdf:resource="http://purl.org/dc/dcmitype/StillImage" />
        <dc:title></dc:title>
      </cc:Work>
    </rdf:RDF>
  </metadata>
  <g
     inkscape:label="Layer 1"
     inkscape:groupmode="layer"
     id="layer1"
     transform="translate(-54.96177,45.903539)">
    <path
       style="fill:#000000;fill-rule:nonzero;stroke:none;stroke-width:0.26458332px;stroke-linecap:butt;stroke-linejoin:miter;stroke-opacity:1"
       d="m 77.36309,-6.6606869 c -0.378641,0.3299519 -0.883251,0.9495938 -1.442276,1.6943699 -1.362241,1.3764425 -3.007025,3.040791 -4.986523,4.18815644 -2.050552,1.18809349 -4.409064,1.79852656 -6.722959,1.59619829 -3.083269,-0.26991451 -5.328894,-1.85729223 -6.51081,-3.17866613 -0.03043,-0.034018 -0.06013,-0.067798 -0.08912,-0.1013056 -1.277889,-1.4772376 -2.46345,-3.7543958 -2.639176,-6.6302029 -0.05117,-1.1920581 0.07794,-2.5555801 0.555019,-3.9163011 0.423017,-1.206972 1.123481,-2.402918 2.135008,-3.374062 1.063503,-1.033672 2.439057,-1.765989 3.924541,-2.027835 1.458792,-0.257241 2.974119,-0.04556 4.26565,0.596635 1.316853,0.654684 2.351131,1.735634 2.928257,2.979732 0.614493,1.324486 0.688991,2.78105 0.334071,4.021911 -0.396932,1.3831206 -1.296397,2.4463254 -2.271653,3.0825455 -1.284581,0.8380121 -2.660508,0.9594506 -3.626923,0.8574894 0.980147,0.10341 2.336206,-0.1020486 3.513304,-1.0171104 0.891261,-0.6928562 1.616562,-1.7737982 1.837517,-3.0502885 0.199111,-1.143402 -0.02471,-2.392442 -0.663464,-3.429199 -0.60038,-0.974626 -1.547995,-1.732711 -2.626784,-2.112051 -1.059128,-0.372546 -2.223012,-0.378401 -3.258308,-0.05947 -1.055453,0.324997 -1.96877,0.976349 -2.616665,1.779215 -0.607086,0.765255 -0.988475,1.664003 -1.181206,2.546516 -0.217934,0.996817 -0.205613,1.986779 -0.08639,2.8618785 0.234302,2.1002984 1.152122,3.6863879 2.020636,4.6903888 0.01986,0.022956 0.04008,0.04618 0.06066,0.069648 0.774885,0.8834046 2.193915,2.2162426 4.402085,2.7550282 1.677137,0.4088888 3.635068,0.2881544 5.592258,-0.4477494 1.931428,-0.7266988 3.67699,-1.9799603 5.277526,-3.1785062 0.814239,-0.4519007 1.497077,-0.8670148 1.875718,-1.1969667 z"
       id="path815"
       inkscape:connector-curvature="0"
       inkscape:path-effect="#path-effect817;#path-effect819"
       inkscape:original-d="m 77.36309,-6.6606869 -1.658997,1.4456683 c -3.324842,2.8973034 -12.246152,-4.6757529 -19.150878,-4.0073146 -6.904728,0.6684386 0.909998,-2.2960558 1.978811,-6.3493788 1.068814,-4.053324 7.502805,2.201192 10.30887,4.695972 2.806065,2.4947798 -3.040829,3.1570999 -5.624699,4.0037179"
       sodipodi:nodetypes="cssssc" />
    <path
       style="fill:#000000;fill-rule:nonzero;stroke:none;stroke-width:0.26458332px;stroke-linecap:butt;stroke-linejoin:miter;stroke-opacity:1"
       d="m 83.24302,-13.943781 c 1.396774,-1.980043 4.169225,-5.346246 9.075167,-6.861341 3.894292,-1.202668 8.264453,-0.886785 11.990523,0.912448 1.73908,0.80105 3.17578,1.864645 4.25982,2.998663 0.77168,0.807259 1.32335,1.605791 1.69379,2.304218 0.37619,0.709278 0.71621,1.521654 0.95967,2.429945 0.40682,1.553802 0.53781,3.5233043 -0.0171,5.607827 -0.44928,1.6876672 -1.34544,3.3974291 -2.73278,4.818536 -1.2436,1.27389359 -2.85135,2.27367545 -4.66712,2.792344 -1.71187,0.4890162 -3.56457,0.5322876 -5.318908,0.086349 -1.731025,-0.43875731 -3.362712,-1.36250064 -4.551153,-2.7239552 -1.194629,-1.3678529 -1.879421,-3.1393796 -1.834233,-4.898496 0.04636,-1.8236047 0.896736,-3.529551 2.223431,-4.566676 0.740099,-0.521437 1.558778,-0.819931 2.343105,-0.919857 0.890368,-0.113473 1.716611,0.02938 2.388692,0.299206 0.765679,0.315475 1.323026,0.782379 1.704726,1.170978 -0.38862,-0.395639 -0.991579,-0.790869 -1.769776,-0.967178 -0.674427,-0.159557 -1.443685,-0.143841 -2.187333,0.107851 -0.654239,0.221391 -1.266369,0.618638 -1.747846,1.154595 -0.94945,0.9327306 -1.433344,2.3325013 -1.305423,3.6793078 0.12296,1.3014022 0.791918,2.5388738 1.765622,3.4105882 0.969782,0.8690554 2.230107,1.3923855 3.510284,1.55579 1.302162,0.1655154 2.601112,-0.033203 3.724422,-0.5040993 1.1925,-0.4998523 2.18333,-1.2972868 2.89595,-2.207767 0.79574,-1.0166084 1.25059,-2.1666037 1.43627,-3.2368675 0.22955,-1.3228305 0.0629,-2.5309182 -0.21283,-3.4641202 -0.15603,-0.547403 -0.36945,-1.049012 -0.60956,-1.501722 -0.23414,-0.441448 -0.54119,-1.000959 -0.98849,-1.629992 -0.63221,-0.889092 -1.51129,-1.866105 -2.71398,-2.766206 -2.659224,-1.891271 -6.241847,-2.945683 -9.920294,-2.487227 -4.690065,0.584536 -7.94411,3.35066 -9.394606,5.406858 z"
       id="path821"
       inkscape:connector-curvature="0"
       inkscape:path-effect="#path-effect823;#path-effect825"
       inkscape:original-d="m 83.24302,-13.943781 c 3.354496,-1.590518 16.83632,-2.844272 20.19029,-4.434262 3.35396,-1.589989 1.11388,4.186958 5.61266,6.815373 4.49877,2.6284154 -6.85966,7.5723724 -10.28988,11.35895513 -3.430225,3.78658277 0.178443,-7.57290113 0.267269,-11.35895513 0.08883,-3.786053 1.158431,0.712455 1.737251,1.069078"
       sodipodi:nodetypes="cscscc" />
    <path
       style="fill:#000000;fill-rule:nonzero;stroke:none;stroke-width:0.26458332px;stroke-linecap:butt;stroke-linejoin:miter;stroke-opacity:1"
       d="m 107.17508,-15.838982 c 0.63491,-1.653031 1.96249,-4.392246 4.94494,-6.340382 2.23834,-1.462087 5.20543,-2.282201 8.30033,-1.873488 3.40408,0.471488 6.33499,2.295414 8.52017,4.141281 2.09952,1.772206 3.91147,3.898761 4.76052,4.975562 0.40144,0.509119 0.82139,1.047381 1.26303,1.603275 2.20133,2.756821 5.18184,6.2060827 8.91828,8.5119349 2.57673,1.6016174 5.80158,2.7764665 8.99549,2.3820855 1.44033,-0.1415813 2.92844,-0.6103232 4.19992,-1.4811817 1.19195,-0.8158373 2.19785,-2.0087611 2.71968,-3.4207204 0.46619,-1.2369451 0.54335,-2.6553651 0.10468,-3.9090573 -0.43356,-1.242648 -1.41388,-2.32656 -2.64935,-2.796883 -1.05149,-0.416529 -2.30402,-0.36434 -3.27647,0.195517 -0.53419,0.256554 -1.00126,0.658381 -1.33147,1.151228 -0.35599,0.531097 -0.54451,1.159085 -0.54849,1.774926 0.0147,0.886072 0.40515,1.7004952 0.9607,2.2596428 0.71966,0.7243162 1.64289,0.9866669 2.36019,0.9779807 -0.70334,0.00852 -1.65475,-0.1735794 -2.48961,-0.8323806 -0.64647,-0.5101364 -1.21983,-1.3254808 -1.40578,-2.3444629 -0.14353,-0.706784 -0.10075,-1.51123 0.18879,-2.29419 0.26862,-0.726638 0.74303,-1.417692 1.39492,-1.969464 1.30261,-0.991211 3.09434,-1.313312 4.75246,-0.900031 1.93409,0.498545 3.56675,1.938005 4.43943,3.75321 0.87987,1.828427 0.9878,3.9404134 0.49944,5.8442893 -0.56373,2.1637696 -1.86394,4.0410832 -3.49388,5.3984705 -1.73637,1.44644513 -3.80619,2.2983423 -5.81918,2.6696012 -4.47942,0.7460199 -8.77092,-0.75114259 -11.92231,-2.56980188 -4.5565,-2.64416462 -8.03097,-6.57567212 -10.32514,-9.39512312 -0.46365,-0.567069 -0.9179,-1.140041 -1.3077,-1.634402 -0.97009,-1.230326 -2.214,-3.117298 -3.85419,-5.011811 -1.58175,-1.828858 -3.66421,-3.693038 -6.21953,-4.549771 -2.34285,-0.808782 -4.98013,-0.694264 -7.24612,0.255594 -3.05202,1.279345 -4.77453,3.712249 -5.43375,5.428552 z"
       id="path827"
       inkscape:connector-curvature="0"
       inkscape:path-effect="#path-effect829;#path-effect831"
       inkscape:original-d="m 107.17508,-15.838982 c 4.32112,-2.3166 8.64198,-4.632936 12.96257,-6.949008 4.32059,-2.316071 8.64198,7.305103 12.96257,10.958051 4.3206,3.6529478 6.41474,5.9687547 9.62171,8.953529 3.20697,2.98477416 12.38375,-2.67296 18.57523,-4.0090431 6.19148,-1.3360828 -2.49425,-5.4347449 -3.74177,-8.1517199 -1.24753,-2.716976 -3.8306,2.76152 -5.7463,4.142677 -1.9157,1.3811574 2.40569,2.1378919 3.60814,3.2072345" />
    <path
       style="fill:#000000;fill-rule:nonzero;stroke:none;stroke-width:0.26458332px;stroke-linecap:butt;stroke-linejoin:miter;stroke-opacity:1"
       d="m 121.87491,-23.188894 c 1.85565,0.968853 5.07544,2.028338 8.97855,2.380689 4.01472,0.362425 7.01325,-0.120823 9.09847,-0.37541 1.60864,-0.196402 3.31662,-0.536818 5.06904,-1.075637 2.91384,-0.890516 6.60587,-2.526025 9.2216,-5.569309 1.4343,-1.651782 2.62549,-3.843112 2.95952,-6.323953 0.29898,-2.219359 -0.12862,-4.693913 -1.48932,-6.693484 -1.27855,-1.879265 -3.42186,-3.292386 -5.78855,-3.512228 -1.15263,-0.132587 -2.35778,0.01323 -3.46224,0.456975 -1.10807,0.445152 -2.09961,1.187383 -2.8264,2.13575 -0.63365,0.812654 -1.06124,1.766558 -1.24254,2.751242 -0.19431,1.055298 -0.10128,2.121635 0.22514,3.065857 0.59988,1.656529 1.89827,2.873245 3.28217,3.463162 1.81432,0.773394 3.63702,0.493585 4.83966,-0.05809 -1.19388,0.547656 -3.01411,0.882136 -4.88458,0.169484 -1.42811,-0.544112 -2.84001,-1.729693 -3.56429,-3.446147 -0.42428,-0.967931 -0.62866,-2.102758 -0.52,-3.278684 0.10137,-1.097317 0.47364,-2.206045 1.1062,-3.198617 0.74194,-1.145613 1.81302,-2.098928 3.07473,-2.728339 1.25718,-0.627187 2.67466,-0.921229 4.08105,-0.87276 2.88669,0.151839 5.53842,1.753714 7.18325,3.982067 1.74838,2.368303 2.36617,5.327145 2.10003,8.007535 -0.29702,2.992778 -1.63388,5.628364 -3.25905,7.60875 -2.98518,3.606282 -7.16554,5.481849 -10.28908,6.457817 -1.90686,0.59256 -3.76318,0.965394 -5.50869,1.178501 -2.15113,0.262628 -5.69436,0.145209 -9.62826,-0.894779 -4.06368,-1.074296 -6.8055,-2.611805 -8.75641,-3.630394 z"
       id="path839"
       inkscape:connector-curvature="0"
       inkscape:path-effect="#path-effect841;#path-effect843"
       inkscape:original-d="m 121.87491,-23.188894 c 4.23203,0.846089 46.65648,-40.311284 23.51971,2.138157 -2.06115,3.781622 1.33662,1.157902 9.75534,-6.013565 8.41873,-7.171468 -15.95873,-18.204612 -11.8935,-14.967094 23.15689,18.441974 -1.33607,3.206971 -0.8018,6.147198 0.53428,2.94023 6.19201,4.18696 8.28535,3.34087"
       sodipodi:nodetypes="cssscc" />
    <path
       style="fill:#000000;fill-rule:nonzero;stroke:none;stroke-width:0.26458332px;stroke-linecap:butt;stroke-linejoin:miter;stroke-opacity:1"
       d="m 145.79552,-20.649832 c 3.75777,-1.410506 10.10774,-3.228414 17.68386,-4.598624 3.31402,-0.615498 6.60962,-1.087533 9.84825,-1.166627 3.56787,-0.08713 6.62513,0.316444 9.35638,1.172658 1.36621,0.492366 2.41835,1.00078 3.21045,1.371109 1.48954,0.696409 3.12692,1.69232 4.59126,3.109371 1.88257,1.821595 3.56581,4.498176 3.92259,7.635014 0.26579,2.28081 -0.20074,4.8622981 -1.62113,7.0375456 -1.28828,1.9731632 -3.3907,3.5899626 -5.87563,4.1951487 -1.20459,0.3219041 -2.51213,0.4116584 -3.79612,0.1913127 -1.24301,-0.2132159 -2.46386,-0.7222716 -3.48968,-1.5172564 -1.01296,-0.7848827 -1.83044,-1.8519501 -2.29403,-3.0685287 -0.46634,-1.2234977 -0.56644,-2.5943481 -0.25268,-3.8690729 0.24069,-1.03406 0.75078,-1.999868 1.46591,-2.766422 0.75005,-0.804059 1.71681,-1.376899 2.74293,-1.645375 1.11078,-0.290663 2.26724,-0.218719 3.26884,0.148402 1.14187,0.41852 2.04577,1.201714 2.61041,2.089433 0.9687,1.550605 0.90795,3.3084655 0.45607,4.5108499 0.44786,-1.1917066 0.56864,-2.9537979 -0.34573,-4.5763139 -0.51992,-0.939918 -1.39271,-1.831868 -2.57187,-2.380998 -1.03459,-0.481819 -2.28593,-0.685166 -3.56074,-0.480636 -1.17745,0.188883 -2.35068,0.72326 -3.32838,1.573856 -0.9319,0.810691 -1.66851,1.892425 -2.09974,3.12286 -0.5178,1.5276137 -0.54881,3.2334526 -0.0944,4.831116 0.45149,1.5876792 1.36724,3.0365495 2.58689,4.1641484 1.23452,1.14146288 2.75431,1.93789504 4.35365,2.35494429 1.65126,0.43066611 3.36257,0.45644781 4.97017,0.16418959 3.29317,-0.65681717 6.12887,-2.65347708 7.93785,-5.20372048 1.99165,-2.8075757 2.72772,-6.1817038 2.47245,-9.2214588 -0.35848,-4.168791 -2.4796,-7.650356 -4.80825,-9.977829 -1.81444,-1.813639 -3.82875,-3.055128 -5.61786,-3.891589 -0.94764,-0.443051 -2.29316,-0.907864 -3.94254,-1.224202 -3.22626,-0.740092 -6.67886,-0.838708 -10.43665,-0.377048 -3.39625,0.417244 -6.7599,1.255227 -10.01407,2.201588 -7.78015,2.302583 -13.26361,4.566384 -17.32846,6.092155 z"
       id="path832"
       inkscape:connector-curvature="0"
       inkscape:path-effect="#path-effect834;#path-effect836"
       inkscape:original-d="m 145.79552,-20.649832 c 10.55741,-0.178444 6.94928,-5.167474 17.50616,-5.34539 10.55688,-0.177915 26.90539,10.155978 32.87415,12.695303 5.96876,2.539325 -5.96876,8.5523601 -8.95353,12.82893691 -2.98477,4.27657699 -7.21601,-6.59291291 -10.82441,-9.88897191 -3.60841,-3.29606 7.21654,-1.336613 10.82441,-2.004522 3.60787,-0.667909 0.26754,3.0287903 0.4009,4.5435819"
       sodipodi:nodetypes="cssscsc" />
    <path
       style="fill:#000000;fill-rule:nonzero;stroke:none;stroke-width:0.26458332px;stroke-linecap:butt;stroke-linejoin:miter;stroke-opacity:1"
       d="m 93.265598,-20.69233 c -1.701627,0.809176 -4.217614,1.817306 -7.501535,2.169329 -3.273291,0.350884 -7.039561,0.0028 -10.676993,-1.572372 -4.265255,-1.634659 -7.315568,-4.477713 -8.81145,-7.514888 -0.145344,-0.264473 -0.258374,-0.509253 -0.338615,-0.724311 -0.512636,-1.373947 -0.938915,-3.248819 -0.784908,-5.387729 0.13703,-1.904567 0.752159,-4.038982 2.096051,-5.925153 0.829785,-1.129701 1.934154,-2.164393 3.284931,-2.909034 1.257997,-0.693627 2.707707,-1.11666 4.204278,-1.143096 1.448916,-0.02573 2.905332,0.327219 4.161184,1.050321 1.254555,0.722198 2.269095,1.79742 2.880785,3.050544 0.598597,1.234724 0.783551,2.594512 0.605137,3.842993 -0.190979,1.336404 -0.789665,2.518046 -1.582967,3.401552 -0.901242,1.003718 -2.031787,1.612438 -3.095239,1.892704 -1.381311,0.364035 -2.641314,0.192377 -3.538964,-0.07733 0.908414,0.272945 2.169802,0.362051 3.479605,-0.113148 1.005733,-0.364882 1.995519,-1.059312 2.70119,-2.064947 0.621091,-0.885102 0.996973,-1.985184 1.005771,-3.122254 0.0082,-1.062873 -0.30618,-2.131096 -0.900582,-3.012254 -0.599948,-0.896251 -1.47916,-1.590962 -2.46078,-1.987195 -0.983435,-0.397167 -2.061563,-0.498883 -3.067772,-0.341614 -1.040243,0.16239 -2.004584,0.59455 -2.799743,1.179911 -0.854718,0.62898 -1.521273,1.431969 -1.996598,2.266715 -0.813865,1.361573 -1.136891,2.867379 -1.155585,4.195666 -0.02118,1.493162 0.325518,2.813177 0.697587,3.810381 0.05804,0.155567 0.115746,0.341329 0.178871,0.553209 0.840127,2.295321 2.553028,5.11606 6.070953,7.435504 3.107754,1.845504 6.587334,2.649115 9.813182,2.649325 3.22357,2.11e-4 5.821677,-0.789417 7.532206,-1.602826 z"
       id="path838"
       inkscape:connector-curvature="0"
       inkscape:path-effect="#path-effect840;#path-effect842"
       inkscape:original-d="m 93.265598,-20.69233 c -6.057844,-0.401168 -11.703585,0.175869 -17.761958,-0.224771 -6.058374,-0.400639 -4.543317,-11.849213 -6.815373,-17.773422 -2.272054,-5.924211 8.28562,-0.356624 12.428034,-0.53454 4.142412,-0.177914 -4.632409,5.790575 -6.949008,8.68626"
       sodipodi:nodetypes="csssc" />
    <path
       style="fill:#000000;fill-rule:nonzero;stroke:none;stroke-width:0.26458332px;stroke-linecap:butt;stroke-linejoin:miter;stroke-opacity:1"
       d="m 178.58583,-28.850189 c 3.5691,0.885153 8.66756,2.623725 14.21973,5.812121 2.4629,1.471547 5.66779,3.731542 9.0267,4.718636 1.68774,0.594604 3.5636,0.920855 5.46386,0.704438 2.14207,-0.245188 4.07547,-1.165563 5.45224,-2.563671 0.85609,-0.820723 1.38276,-1.706501 1.6594,-2.403922 0.16614,-0.418857 0.31513,-0.93699 0.40087,-1.534819 0.1813,-1.264382 0.0617,-2.807693 -0.60635,-4.33762 -0.55337,-1.267201 -1.44221,-2.410709 -2.58358,-3.268239 -1.10058,-0.826826 -2.36406,-1.330748 -3.61707,-1.521348 -1.78929,-0.32988 -3.49286,0.0034 -4.81902,0.645722 -1.78261,0.86338 -2.82219,2.212642 -3.39864,3.129166 0.59422,-0.944786 1.7978,-2.110869 3.59525,-2.616266 1.32611,-0.372868 2.84722,-0.328656 4.22327,0.243953 0.94376,0.435581 1.7464,1.097874 2.32333,1.882382 0.59741,0.812467 0.92587,1.708558 1.04096,2.536975 0.13842,0.997119 -0.0223,1.857795 -0.22018,2.492608 -0.094,0.301324 -0.19897,0.564644 -0.28523,0.782126 -0.14168,0.357177 -0.32739,0.875631 -0.65661,1.423334 -0.5939,0.879703 -1.61692,1.759968 -3.10589,2.286788 -1.33303,0.470027 -2.85743,0.59419 -4.46295,0.412854 -3.20847,-0.558552 -6.34192,-2.302275 -9.1131,-3.608875 -5.80475,-2.859375 -10.96846,-4.331332 -14.53699,-5.216343 z"
       id="path844"
       inkscape:connector-curvature="0"
       inkscape:path-effect="#path-effect846;#path-effect848"
       inkscape:original-d="m 178.58583,-28.850189 c 4.54385,1.157903 9.83504,4.3558 14.37836,5.514232 4.54332,1.158433 15.5063,5.002197 18.31237,1.884318 2.80606,-3.117882 -0.0888,-8.99834 -3.4745,-11.091686 -3.38568,-2.093347 -7.66147,0.534275 -8.01809,3.0736"
       sodipodi:nodetypes="cscsc" />
    <path
       style="fill:#000000;fill-rule:nonzero;stroke:none;stroke-width:0.26458332px;stroke-linecap:butt;stroke-linejoin:miter;stroke-opacity:1"
       d="m 101.12597,-19.501101 c -1.943729,-0.633199 -5.198315,-1.330321 -9.010413,-0.405869 -2.319758,0.592447 -4.504693,1.710071 -6.551764,3.241196 -1.976067,1.478017 -3.742753,3.280805 -5.300344,5.192217 -1.285947,1.5610079 -2.460341,3.1873202 -3.661147,4.5993188 -1.359097,1.5981294 -2.652222,2.8204387 -4.118781,3.7211636 -1.133387,0.6685384 -2.191773,1.0416339 -2.964682,1.2749206 -0.622798,0.1879786 -1.530119,0.5228569 -2.754799,0.7292409 -2.514197,0.42369435 -4.897972,-0.00803 -6.263037,-0.7123987 1.410099,0.727605 3.384992,1.85238123 6.326489,2.02373699 1.359067,0.0791719 2.514796,-0.09292679 3.215382,-0.30438416 0.896156,-0.27048643 2.092751,-0.76787511 3.331677,-1.63030803 1.622137,-1.0922787 2.971753,-2.5205375 4.291823,-4.2437232 1.171281,-1.5289599 2.258875,-3.2177718 3.429881,-4.8083088 1.432852,-1.924426 3.071324,-3.748065 4.920919,-5.261701 1.914225,-1.566526 3.983853,-2.743187 6.212153,-3.410138 3.658218,-1.14494 6.934527,-0.644152 8.896643,-0.005 z"
       id="path850"
       inkscape:connector-curvature="0"
       inkscape:path-effect="#path-effect852;#path-effect854"
       inkscape:original-d="m 101.12597,-19.501101 c -2.984245,-0.06708 -5.968753,-0.1339 -8.953528,-0.200453 -2.984776,-0.06655 -8.374182,5.723759 -11.49259,8.552626 -3.118409,2.8288667 -3.357772,11.92566367 -7.750816,8.6862572 -2.550746,-1.8809058 -9.287352,0.8460906 -12.428033,0.601359"
       sodipodi:nodetypes="ccssc" />
  </g>
</svg>
